<svg width="32" height="32" viewBox="0 0 32 32" fill="none" xmlns="http://www.w3.org/2000/svg">
<path d="M15.9999 7.96667C21.0533 7.96667 25.5599 10.8067 27.7599 15.3C26.9733 16.9267 25.8666 18.3267 24.5466 19.46L26.4266 21.34C28.2799 19.7 29.7466 17.6467 30.6666 15.3C28.3599 9.44667 22.6666 5.3 15.9999 5.3C14.3066 5.3 12.6799 5.56667 11.1466 6.06L13.3466 8.26C14.2133 8.08667 15.0933 7.96667 15.9999 7.96667ZM14.5733 9.48667L17.3333 12.2467C18.0933 12.58 18.7066 13.1933 19.0399 13.9533L21.7999 16.7133C21.9066 16.26 21.9866 15.78 21.9866 15.2867C21.9999 11.98 19.3066 9.3 15.9999 9.3C15.5066 9.3 15.0399 9.36667 14.5733 9.48667ZM2.67992 5.12667L6.25325 8.7C4.07992 10.4067 2.35992 12.6733 1.33325 15.3C3.63992 21.1533 9.33325 25.3 15.9999 25.3C18.0266 25.3 19.9733 24.9133 21.7599 24.2067L26.3199 28.7667L28.1999 26.8867L4.55992 3.23334L2.67992 5.12667ZM12.6799 15.1267L16.1599 18.6067C16.1066 18.62 16.0533 18.6333 15.9999 18.6333C14.1599 18.6333 12.6666 17.14 12.6666 15.3C12.6666 15.2333 12.6799 15.1933 12.6799 15.1267ZM8.14659 10.5933L10.4799 12.9267C10.1733 13.66 9.99992 14.46 9.99992 15.3C9.99992 18.6067 12.6933 21.3 15.9999 21.3C16.8399 21.3 17.6399 21.1267 18.3599 20.82L19.6666 22.1267C18.4933 22.4467 17.2666 22.6333 15.9999 22.6333C10.9466 22.6333 6.43992 19.7933 4.23992 15.3C5.17325 13.3933 6.53325 11.82 8.14659 10.5933Z" fill="#35AAFF"/>
</svg>
