<svg width="25" height="24" viewBox="0 0 25 24" fill="none" xmlns="http://www.w3.org/2000/svg">
<path fill-rule="evenodd" clip-rule="evenodd" d="M8.97971 11.0269C10.737 11.0269 12.1663 9.10296 12.1663 6.73743C12.1663 4.37206 10.7369 2.44751 8.97971 2.44751C7.22294 2.44751 5.79348 4.37201 5.79348 6.73743C5.79348 9.10296 7.22294 11.0269 8.97971 11.0269ZM18.4313 15.1999L18.4221 15.1873L18.422 15.1872C18.3601 15.1026 18.3017 15.0229 18.2698 14.954C17.5573 13.4241 15.6042 11.6206 12.4399 11.5757L12.3182 11.575C9.20256 11.575 7.26399 13.2831 6.48838 14.8823C6.4616 14.937 6.40267 15.008 6.34024 15.0831C6.26637 15.171 6.19329 15.261 6.13081 15.3588C5.47559 16.3812 5.14153 17.5324 5.19081 18.5999C5.24247 19.7333 5.71554 20.6436 6.52058 21.163C6.84585 21.3725 7.19683 21.4781 7.56507 21.4781C8.32402 21.4781 9.01892 21.0496 9.82404 20.553L9.82518 20.5523C10.3374 20.2356 10.8665 19.9089 11.4541 19.6644C11.9159 19.5117 12.7587 19.5266 13.2135 19.6841C13.784 19.9367 14.2855 20.2677 14.7702 20.5876L14.7783 20.593C15.5253 21.0868 16.2306 21.5529 16.9959 21.5529C17.3244 21.5529 17.6427 21.4659 17.943 21.2948C19.5999 20.3505 19.9155 17.7599 18.647 15.5202C18.5834 15.4078 18.5075 15.3029 18.4313 15.1999ZM18.9418 6.73743C18.9418 9.10296 17.5122 11.0269 15.7558 11.0269C13.9983 11.0269 12.569 9.10296 12.569 6.73743C12.569 4.37201 13.9983 2.44751 15.7558 2.44751C17.5122 2.44751 18.9418 4.37206 18.9418 6.73743ZM20.9886 8.82397C19.5802 8.82397 18.478 10.2891 18.478 12.1594C18.478 14.0289 19.5809 15.4942 20.9886 15.4942C22.3962 15.4942 23.4998 14.0289 23.4998 12.1594C23.4998 10.2891 22.3969 8.82397 20.9886 8.82397ZM4.01089 8.82397C5.41865 8.82397 6.52155 10.2891 6.52155 12.1594C6.52155 14.0289 5.4187 15.4942 4.01089 15.4942C2.60307 15.4942 1.5 14.0289 1.5 12.1594C1.5 10.2891 2.60307 8.82397 4.01089 8.82397Z" fill="white"/>
</svg>
